<svg width="490" height="510" viewBox="0 0 490 510" fill="none" xmlns="http://www.w3.org/2000/svg">
<path d="M66.9922 411.655L69.9586 407.331L210.282 130.206L210.579 127.272L148.721 6.33948C143.538 -3.79083 128.949 -1.22954 127.248 10.1106L66.9922 411.655Z" fill="#FFC24A"/>
<path d="M68.7419 408.358L70.9859 403.804L209.839 129.582L148.136 8.15766C143.008 -1.8665 129.986 0.688864 128.303 11.9101L68.7419 408.358Z" fill="#7F5AF0"/>
<path d="M255.673 218.747L301.731 169.652L255.66 78.1123C251.287 69.4474 239.076 69.4224 234.748 78.1123L210.135 126.971V131.132L255.673 218.747Z" fill="#7F5AF0"/>
<path d="M254.852 216.701L299.628 168.971L254.852 80.2293C250.6 71.8054 240.27 70.9228 236.064 79.371L211.319 128.987L210.58 131.523L254.852 216.701Z" fill="#7F5AF0"/>
<path d="M66.9922 411.655L68.3368 410.248L73.2222 408.181L252.78 221.989L255.055 215.544L210.262 126.705L66.9922 411.655Z" fill="#7F5AF0"/>
<path d="M261.424 505.556L423.928 411.227L377.522 113.765C376.07 104.458 365.1 100.779 358.7 107.452L66.9922 411.655L228.564 505.547C238.775 511.481 251.211 511.484 261.424 505.556Z" fill="#FDE068"/>
<path d="M422.471 410.436L376.418 115.232C374.978 105.996 365.855 102.174 359.504 108.797L68.7937 411.077L228.591 504.04C238.724 509.929 251.066 509.932 261.202 504.049L422.471 410.436Z" fill="#7F5AF0"/>
<path d="M261.424 502.777C251.211 508.705 238.775 508.702 228.564 502.768L68.2936 410.224L66.9922 411.655L228.564 505.547C238.775 511.481 251.211 511.484 261.424 505.556L423.928 411.227L423.53 408.679L261.424 502.777Z" fill="#7F5AF0"/>
</svg>
