<svg width="150" height="140" viewBox="0 0 150 140" fill="none" xmlns="http://www.w3.org/2000/svg">
<path fill-rule="evenodd" clip-rule="evenodd" d="M147.171 63.7633L81.6786 2.64061C77.9096 -0.880204 71.7921 -0.880204 68.0182 2.64061L54.4188 15.3337L71.6703 31.4354C75.6795 30.1712 80.2763 31.0191 83.4725 34.0023C86.6835 37.0039 87.5854 41.3312 86.198 45.0855L102.824 60.6035C106.846 59.3101 111.488 60.1472 114.7 63.1504C119.19 67.3394 119.19 74.1291 114.7 78.3212C110.209 82.5133 102.934 82.5133 98.4413 78.3212C95.064 75.166 94.2296 70.5361 95.9396 66.6528L80.4343 52.1809L80.4327 90.2646C81.5271 90.7716 82.5607 91.4459 83.4725 92.2939C87.9623 96.4829 87.9623 103.273 83.4725 107.468C78.981 111.658 71.7032 111.658 67.2183 107.468C62.7285 103.273 62.7285 96.4829 67.2183 92.2939C68.3276 91.2601 69.6114 90.4782 70.9807 89.9528V51.5142C69.6114 50.9919 68.3293 50.2146 67.2183 49.1731C63.8164 46.0025 62.9984 41.3435 64.7414 37.4448L47.7367 21.5704L2.83041 63.4807C-0.943469 67.0045 -0.943469 72.7143 2.83041 76.2352L68.3227 137.359C72.0933 140.88 78.2091 140.88 81.9847 137.359L147.171 76.5193C150.943 72.997 150.943 67.2841 147.171 63.7633Z" fill="#DE4C36"/>
</svg>
