<svg width="122" height="119" viewBox="0 0 122 119" fill="none" xmlns="http://www.w3.org/2000/svg">
<path d="M60.8267 0.00380162C27.2238 0.00380162 0 27.2504 0 60.8305C0 87.7197 17.4269 110.511 41.5789 118.551C44.6316 119.125 45.7341 117.243 45.7341 115.616C45.7341 114.172 45.6999 110.351 45.6771 105.28C28.7482 108.944 25.1823 97.1022 25.1823 97.1022C22.4108 90.092 18.4115 88.2101 18.4115 88.2101C12.9067 84.4503 18.8487 84.5301 18.8487 84.5301C24.9466 84.9445 28.1552 90.7839 28.1552 90.7839C33.5801 100.09 42.3886 97.3988 45.8747 95.8325C46.407 91.913 47.9923 89.2176 49.7182 87.7159C36.2147 86.1914 22.0155 80.9641 22.0155 57.6561C22.0155 50.9994 24.3725 45.5782 28.2692 41.3203C27.5963 39.7959 25.5358 33.5992 28.8052 25.2203C28.8052 25.2203 33.8957 23.597 45.5326 31.4588C50.4025 30.1092 55.5728 29.4363 60.7393 29.4021C65.9095 29.4363 71.076 30.113 75.9459 31.4588C87.5144 23.597 92.601 25.2203 92.601 25.2203C95.8667 33.5992 93.8062 39.7921 93.2131 41.3203C97.0718 45.5782 99.4288 51.0032 99.4288 57.6561C99.4288 81.0174 85.2106 86.1686 71.6919 87.6551C73.8056 89.4761 75.7863 93.2207 75.7863 98.9042C75.7863 107.04 75.7102 113.594 75.7102 115.575C75.7102 117.156 76.7747 119.057 79.9073 118.445C104.238 110.488 121.646 87.6779 121.646 60.8267C121.646 27.2466 94.422 0 60.8191 0L60.8267 0.00380162Z" fill="white"/>
</svg>
