<svg width="139" height="138" viewBox="0 0 139 138" fill="none" xmlns="http://www.w3.org/2000/svg">
<path fill-rule="evenodd" clip-rule="evenodd" d="M19.2985 124.205L8.14453 0H130.708L119.542 124.186L69.3511 138L19.2985 124.205Z" fill="#E44D26"/>
<path fill-rule="evenodd" clip-rule="evenodd" d="M69.4261 127.441L109.983 116.278L119.525 10.1556H69.4261V127.441Z" fill="#F16529"/>
<path d="M49.1225 56.2215H69.4261V71.4545H35.09L30.9516 25.389H69.4261V40.6224H47.7202L49.1225 56.2215Z" fill="#EBEBEB"/>
<path d="M69.3589 95.8016L69.4261 95.7838V111.633L69.3555 111.652L37.9252 102.99L35.7756 79.0714H51.1782L52.2706 91.2206L69.3589 95.8016Z" fill="#EBEBEB"/>
<path d="M69.373 25.389H107.809L106.435 40.6224H69.373V25.389Z" fill="white"/>
<path d="M69.373 71.4545V56.2215H105.039L104.665 60.312L100.828 102.99L69.373 111.645V95.7966L86.486 91.2109L88.267 71.4545H69.373Z" fill="white"/>
</svg>
