<svg width="35" height="36" viewBox="0 0 35 36" fill="none" xmlns="http://www.w3.org/2000/svg">
<path fill-rule="evenodd" clip-rule="evenodd" d="M10.2852 0.479268C12.1514 0.393358 12.7464 0.374268 17.5 0.374268C22.2536 0.374268 22.8486 0.394949 24.7132 0.479268C26.5777 0.563586 27.8505 0.861086 28.9641 1.29222C30.1302 1.7329 31.1882 2.42177 32.0632 3.31268C32.9541 4.18609 33.6414 5.24245 34.0805 6.41018C34.5132 7.52381 34.8091 8.79654 34.895 10.6579C34.9809 12.5272 35 13.1222 35 17.8743C35 22.6279 34.9793 23.2229 34.895 25.089C34.8107 26.9504 34.5132 28.2231 34.0805 29.3368C33.6414 30.5046 32.9529 31.5628 32.0632 32.4375C31.1882 33.3284 30.1302 34.0156 28.9641 34.4547C27.8505 34.8875 26.5777 35.1834 24.7164 35.2693C22.8486 35.3552 22.2536 35.3743 17.5 35.3743C12.7464 35.3743 12.1514 35.3536 10.2852 35.2693C8.42386 35.185 7.15114 34.8875 6.0375 34.4547C4.86965 34.0156 3.81153 33.3272 2.93682 32.4375C2.04651 31.5635 1.35755 30.5059 0.917955 29.3384C0.486818 28.2247 0.190909 26.952 0.105 25.0906C0.0190909 23.2213 0 22.6263 0 17.8743C0 13.1206 0.0206818 12.5256 0.105 10.6611C0.189318 8.79654 0.486818 7.52381 0.917955 6.41018C1.3582 5.24258 2.04769 4.18499 2.93841 3.31109C3.81188 2.42097 4.86893 1.73202 6.03591 1.29222C7.14955 0.861086 8.42227 0.565177 10.2836 0.479268H10.2852ZM24.5716 3.62927C22.7261 3.54495 22.1725 3.52745 17.5 3.52745C12.8275 3.52745 12.2739 3.54495 10.4284 3.62927C8.72136 3.70722 7.79545 3.99199 7.17818 4.23222C6.36205 4.5504 5.77818 4.92745 5.16568 5.53995C4.58507 6.1048 4.13824 6.79244 3.85795 7.55245C3.61773 8.16972 3.33295 9.09563 3.255 10.8027C3.17068 12.6481 3.15318 13.2018 3.15318 17.8743C3.15318 22.5468 3.17068 23.1004 3.255 24.9459C3.33295 26.6529 3.61773 27.5788 3.85795 28.1961C4.13795 28.955 4.585 29.6438 5.16568 30.2086C5.73045 30.7893 6.41932 31.2363 7.17818 31.5163C7.79545 31.7565 8.72136 32.0413 10.4284 32.1193C12.2739 32.2036 12.8259 32.2211 17.5 32.2211C22.1741 32.2211 22.7261 32.2036 24.5716 32.1193C26.2786 32.0413 27.2045 31.7565 27.8218 31.5163C28.638 31.1981 29.2218 30.8211 29.8343 30.2086C30.415 29.6438 30.862 28.955 31.142 28.1961C31.3823 27.5788 31.667 26.6529 31.745 24.9459C31.8293 23.1004 31.8468 22.5468 31.8468 17.8743C31.8468 13.2018 31.8293 12.6481 31.745 10.8027C31.667 9.09563 31.3823 8.16972 31.142 7.55245C30.8239 6.73631 30.4468 6.15245 29.8343 5.53995C29.2694 4.95938 28.5818 4.51256 27.8218 4.23222C27.2045 3.99199 26.2786 3.70722 24.5716 3.62927ZM15.2648 23.269C16.5131 23.7887 17.9031 23.8588 19.1974 23.4675C20.4917 23.0761 21.6099 22.2475 22.3612 21.1233C23.1125 19.999 23.4501 18.6488 23.3164 17.3033C23.1828 15.9578 22.5861 14.7004 21.6284 13.7459C21.0179 13.1357 20.2797 12.6685 19.4669 12.3779C18.6541 12.0873 17.787 11.9805 16.9281 12.0652C16.0691 12.15 15.2396 12.4241 14.4992 12.8679C13.7589 13.3117 13.1262 13.9141 12.6466 14.6318C12.1671 15.3494 11.8526 16.1645 11.7258 17.0183C11.5991 17.8721 11.6632 18.7434 11.9136 19.5694C12.164 20.3954 12.5944 21.1557 13.1739 21.7954C13.7533 22.4351 14.4674 22.9384 15.2648 23.269ZM11.1395 11.5138C11.9748 10.6785 12.9664 10.016 14.0577 9.56393C15.1491 9.11189 16.3188 8.87923 17.5 8.87923C18.6812 8.87923 19.8509 9.11189 20.9423 9.56393C22.0336 10.016 23.0252 10.6785 23.8605 11.5138C24.6957 12.3491 25.3583 13.3407 25.8103 14.432C26.2624 15.5233 26.495 16.693 26.495 17.8743C26.495 19.0555 26.2624 20.2252 25.8103 21.3165C25.3583 22.4079 24.6957 23.3995 23.8605 24.2347C22.1736 25.9216 19.8856 26.8693 17.5 26.8693C15.1144 26.8693 12.8264 25.9216 11.1395 24.2347C9.45265 22.5478 8.50496 20.2599 8.50496 17.8743C8.50496 15.4886 9.45265 13.2007 11.1395 11.5138ZM28.49 10.2188C28.697 10.0236 28.8627 9.78876 28.9773 9.52832C29.0919 9.26787 29.1531 8.98708 29.1573 8.70257C29.1614 8.41805 29.1084 8.13559 29.0014 7.87192C28.8945 7.60825 28.7357 7.36872 28.5345 7.16751C28.3333 6.96631 28.0938 6.80752 27.8301 6.70055C27.5664 6.59357 27.2839 6.54059 26.9994 6.54474C26.7149 6.54889 26.4341 6.61008 26.1737 6.72469C25.9132 6.83931 25.6784 7.00501 25.4832 7.21199C25.1034 7.61454 24.8955 8.14923 24.9036 8.70257C24.9117 9.2559 25.1351 9.7843 25.5264 10.1756C25.9177 10.5669 26.4461 10.7903 26.9994 10.7984C27.5528 10.8064 28.0875 10.5985 28.49 10.2188Z" fill="#FFFFFE"/>
</svg>
