<svg width="122" height="122" viewBox="0 0 122 122" fill="none" xmlns="http://www.w3.org/2000/svg">
<path d="M103.627 103.669H85.6348V75.4356C85.6348 68.7033 85.4942 60.0512 76.2263 60.0512C66.8444 60.0512 65.415 67.3538 65.415 74.9376V103.665H47.4V45.6134H64.7042V53.5318H64.9361C67.3538 48.9586 73.2346 44.1498 82.0083 44.1498C100.259 44.1498 103.646 56.1661 103.646 71.79V103.665L103.627 103.669ZM27.0472 37.6798C21.2424 37.6798 16.5894 32.985 16.5894 27.203C16.5894 21.4401 21.2614 16.7529 27.0472 16.7529C32.833 16.7529 37.5201 21.4401 37.5201 27.203C37.5201 32.985 32.833 37.6798 27.0472 37.6798ZM36.0718 103.669H18.0188V45.6172H36.0718V103.669ZM112.659 0H8.97138C4.01811 0 0 3.91928 0 8.7699V112.88C0 117.73 4.01811 121.65 8.97138 121.65H112.64C117.586 121.65 121.646 117.73 121.646 112.88V8.7699C121.646 3.91928 117.586 0 112.64 0L112.659 0Z" fill="white"/>
</svg>
