<svg width="26" height="20" viewBox="0 0 26 20" fill="none" xmlns="http://www.w3.org/2000/svg">
<path d="M0.585795 6.01093L3.52052 3.39051C4.20062 2.78341 5.20024 2.89667 5.75305 3.64328C6.30612 4.39018 6.20298 5.48798 5.52288 6.09509L4.10267 7.36322L14.4141 16.9048C15.0942 17.512 15.1973 18.6098 14.6442 19.3564C14.3307 19.7803 13.8732 20 13.4121 20C13.0604 20 12.706 19.8722 12.412 19.6094L0.585795 8.71551C0.215351 8.38457 0 7.88788 0 7.36322C0 6.83857 0.215351 6.34216 0.585795 6.01093V6.01093Z" fill="white"/>
<path d="M17.789 10.0133L19.3326 8.72305L13.8344 4.12683C12.8657 3.31737 12.7192 1.85363 13.5066 0.85816C14.2939 -0.138073 15.7177 -0.288692 16.6864 0.520771L24.3413 6.92002C24.8693 7.36164 25.1757 8.02351 25.1757 8.72305C25.1757 9.42258 24.8693 10.0848 24.3413 10.5261L20.6409 13.6194C20.2217 13.9697 19.7174 14.1401 19.2164 14.1401C18.5593 14.1401 17.9077 13.8472 17.4611 13.2824C16.6738 12.2865 16.8207 10.8232 17.789 10.0133Z" fill="#7F5AF0"/>
</svg>
