<svg width="506" height="500" viewBox="0 0 506 500" fill="none" xmlns="http://www.w3.org/2000/svg">
<path d="M399.315 396.417C417.211 388.797 438.548 386.024 466.08 386.715C465.306 381.529 455.467 375.37 448.26 370.858C445.84 369.344 443.717 368.014 442.333 366.97C431.32 359.003 419.618 350.685 407.919 343.413C404.149 341.095 398.723 339.16 393.501 337.299C390.141 336.101 386.866 334.934 384.172 333.714C381.419 332.584 377.669 331.455 373.621 330.235C364.004 327.339 352.703 323.935 349.069 318.818C339.711 306.571 333.18 291.762 326.659 276.975C325.985 275.447 325.312 273.919 324.635 272.395C321.222 264.54 317.424 256.53 313.605 248.475C309.34 239.479 305.048 230.426 301.234 221.469C299.572 217.821 298.308 214.372 297.064 210.977C295.474 206.636 293.916 202.382 291.598 197.913C266.474 149.067 229.309 108.186 184.224 79.433C169.424 70.0789 152.908 61.416 134.667 55.5284C129.096 53.8469 122.925 53.5762 116.693 53.3029C111.375 53.0696 106.012 52.8344 100.941 51.7186H93.7125C89.5398 50.5517 85.8355 47.1835 82.3895 44.0503C80.7201 42.5324 79.1114 41.0696 77.5394 39.9391C66.8697 32.6649 56.202 27.8118 43.4682 22.6176C38.9949 20.5398 26.2611 15.6889 21.7876 19.501C19.0327 20.1943 17.6575 21.2332 16.9687 24.0041C14.216 28.1618 16.6276 34.3971 18.3462 38.2069C21.7573 45.5326 26.0707 50.892 30.4907 56.3839C32.7596 59.2031 35.0567 62.0573 37.2742 65.2302C38.3334 66.7351 39.4376 68.274 40.5604 69.8388C45.6399 76.9179 51.099 84.5259 54.4815 91.9036C59.2545 102.254 62.6567 113.196 66.0464 124.098C69.0106 133.631 71.9653 143.133 75.8188 152.183C78.9148 159.46 83.7337 167.773 88.2072 174.356C89.6102 176.282 91.4393 178.018 93.2909 179.775C96.4341 182.758 99.6421 185.802 100.941 189.945C104.288 195.56 98.1433 211.637 94.41 221.406C93.5361 223.693 92.7944 225.633 92.3374 227.014C83.3883 255.419 85.109 294.913 95.4333 319.509C95.8024 320.375 96.1686 321.256 96.5375 322.143C100.298 331.184 104.334 340.888 114.361 343.413C114.673 343.099 114.703 342.999 114.77 342.95C114.851 342.892 114.986 342.91 115.739 342.72C116.242 338.738 116.671 334.786 117.093 330.89C118.692 316.143 120.205 302.193 125.374 290.41C127.838 284.326 131.901 279.414 135.861 274.626C137.99 272.054 140.088 269.517 141.893 266.853C144.077 268.172 144.875 271.164 145.695 274.238C146.167 276.007 146.646 277.804 147.401 279.324C147.726 280.103 148.052 280.889 148.381 281.679C152.578 291.768 157.093 302.622 162.198 312.58C173.555 334.752 186.291 356.229 200.743 375.631C205.56 382.559 212.445 390.181 218.639 396.416C219.581 397.246 220.563 397.955 221.531 398.652C223.39 399.993 225.195 401.294 226.554 403.345H227.243V404.386C220.709 401.974 215.692 396.786 210.794 391.723C207.953 388.785 205.152 385.889 202.118 383.6C186.632 371.821 168.049 354.151 157.38 337.178C154.019 329.891 150.465 322.8 146.862 315.611C145.668 313.23 144.469 310.838 143.27 308.425C143.27 308.425 143.272 308.077 143.27 307.731C141.955 309.497 141.758 311.262 141.52 313.386C141.385 314.596 141.236 315.922 140.861 317.431C139.585 322.37 138.953 327.506 138.343 332.471C136.811 344.915 135.413 356.277 124.342 360.735C106.792 368.011 93.7127 348.953 88.2072 340.294C70.6567 311.541 65.8378 263.041 78.2261 223.895C79.1846 220.882 79.8514 217.659 80.5163 214.445C81.7626 208.422 83.0022 202.431 86.1432 197.913C85.4527 193.749 83.0759 191.593 80.7531 189.485C79.597 188.436 78.4544 187.399 77.5396 186.133C72.7207 179.552 68.5927 171.93 64.8058 164.656C59.3033 153.843 54.9994 141.422 50.8283 129.385C49.52 125.61 48.2248 121.872 46.9098 118.234C45.7351 115.194 44.9699 112.153 44.215 109.152C43.4214 105.998 42.6391 102.889 41.4044 99.8733C38.1511 92.7774 32.7641 85.683 27.7627 79.0965C26.4146 77.3211 25.0944 75.5826 23.8517 73.8909C22.511 71.9542 20.7359 69.7094 18.7571 67.2071C9.05363 54.9365 -5.54728 36.4727 2.17109 17.7689C16.6256 -17.913 67.2175 9.10596 86.8298 21.5788C88.7911 22.8481 90.8664 24.6908 93.0092 26.5935C96.1315 29.3659 99.397 32.2655 102.662 33.7038C106.965 33.8777 111.268 34.1375 115.571 34.3973C119.872 34.6569 124.173 34.9166 128.473 35.0904C129.882 35.4223 131.283 35.7489 132.675 36.0734C147.267 39.4751 160.898 42.6526 172.523 49.2931C231.716 84.2839 270.261 119.966 305.707 178.859C310.52 186.785 313.803 195.131 317.147 203.631C319.064 208.504 321.001 213.429 323.258 218.353C331.861 238.445 341.501 259.574 351.478 278.63C352.732 281.156 353.906 283.764 355.081 286.377C358.098 293.082 361.13 299.821 365.589 305.306C367.192 307.612 370.778 308.842 374.214 310.021C375.941 310.613 377.629 311.193 379.01 311.889C383.461 314.197 388.282 316.292 393.142 318.404C400.681 321.681 408.314 324.998 414.802 329.21C434.761 341.681 454.035 356.575 471.585 371.821C475.133 375.016 478.074 378.925 481.01 382.828C483.487 386.12 485.96 389.408 488.793 392.261V395.378C483.287 397.11 477.78 398.842 472.274 400.229C466.284 401.779 460.634 402.386 455.028 402.989C449.362 403.599 443.742 404.203 437.86 405.771C437.118 405.984 436.359 406.205 435.584 406.43C428.81 408.397 420.908 410.693 414.113 411.315C414.456 411.66 414.802 412.006 414.802 412.006C418.119 421.511 432.223 429.682 443.782 436.379C447.812 438.714 451.532 440.869 454.378 442.839C467.801 452.539 480.189 464.318 490.17 477.828C491.886 479.555 493.602 481.196 495.318 482.837C497.044 484.487 498.77 486.138 500.495 487.875C501.66 489.552 502.423 491.473 503.173 493.362C503.972 495.375 504.757 497.352 506 498.961V500C502.989 498.918 500.919 496.753 498.867 494.605C497.634 493.316 496.408 492.032 494.987 490.994C491.745 488.769 488.505 486.353 485.264 483.938C480.935 480.71 476.606 477.483 472.274 474.711C465.615 470.477 458.42 467.142 451.19 463.79C444.221 460.559 437.219 457.313 430.631 453.232C423.062 448.381 415.834 442.839 408.607 437.297C402.068 432.446 394.844 423.09 390.711 416.164C389.67 414.517 389.014 412.741 388.383 411.03C387.555 408.784 386.768 406.652 385.204 405.077C385.719 400.156 390.468 398.914 394.99 397.731C396.515 397.332 398.013 396.941 399.315 396.417Z" fill="#00546B"/>
<path d="M100.939 87.4004C105.07 86.3616 109.198 85.666 115.048 85.666C116.139 86.7649 117.5 87.6999 118.875 88.6441C120.969 90.0828 123.095 91.5427 124.341 93.6357C125.105 94.7133 125.598 95.7909 126.09 96.8685C126.707 98.2163 127.323 99.5642 128.471 100.912C128.471 109.225 126.064 114.767 121.243 118.234C121.243 118.234 120.899 118.579 120.556 118.927C119.181 116.159 117.892 113.391 116.603 110.623C115.311 107.847 114.018 105.072 112.639 102.296C111.299 100.408 109.751 98.6775 108.197 96.9404C105.76 94.2166 103.31 91.4777 101.628 88.0937H100.939V87.4004Z" fill="#00546B"/>
</svg>
