<svg width="500" height="263" viewBox="0 0 500 263" fill="none" xmlns="http://www.w3.org/2000/svg">
<path d="M370.117 94.1406C381.055 94.1406 388.281 96.0938 391.992 100.195C395.703 104.297 396.484 111.133 394.531 120.898C392.578 131.055 388.672 138.477 383.008 142.773C377.344 147.07 368.75 149.219 357.227 149.219H339.844L350.586 94.1406H370.117Z" fill="#7F5AF0"/>
<path d="M146.094 94.1406C157.031 94.1406 164.258 96.0938 167.969 100.195C171.68 104.297 172.461 111.133 170.508 120.898C168.555 131.055 164.648 138.477 158.984 142.773C153.32 147.07 144.727 149.219 133.203 149.219H115.82L126.562 94.1406H146.094Z" fill="#7F5AF0"/>
<path fill-rule="evenodd" clip-rule="evenodd" d="M250 253.125C382.678 253.125 490.234 198.647 490.234 131.445C490.234 64.2435 382.678 9.76562 250 9.76562C117.322 9.76562 9.76562 64.2435 9.76562 131.445C9.76562 198.647 117.322 253.125 250 253.125ZM328.906 205.078H300.195L325.781 73.2422H381.055C397.656 73.2422 409.766 77.5391 417.383 86.3281C425 95.1172 427.344 107.227 424.219 122.852C423.047 129.297 420.898 135.156 417.969 140.43C415.039 145.703 411.133 150.586 406.25 155.078C400.391 160.547 394.141 164.258 387.109 166.602C380.078 168.945 371.289 170.117 360.352 170.117H335.742L328.906 205.078ZM221.289 38.2812H249.805L242.969 73.2422H268.359C284.375 73.2422 295.312 75.9766 301.367 81.6406C307.422 87.3047 309.18 96.2891 306.836 108.789L294.922 170.117H266.016L277.344 111.719C278.711 105.078 278.125 100.586 275.977 98.2422C273.828 95.8984 268.945 94.5312 261.719 94.5312H238.867L224.219 170.117H195.703L221.289 38.2812ZM104.883 205.078H76.1719L101.758 73.2422H157.031C173.633 73.2422 185.742 77.5391 193.359 86.3281C200.977 95.1172 203.32 107.227 200.195 122.852C199.023 129.297 196.875 135.156 193.945 140.43C191.016 145.703 187.109 150.586 182.227 155.078C176.367 160.547 170.117 164.258 163.086 166.602C156.055 168.945 147.266 170.117 136.328 170.117H111.719L104.883 205.078Z" fill="#7F5AF0"/>
<path fill-rule="evenodd" clip-rule="evenodd" d="M500 131.445C500 204.041 388.071 262.891 250 262.891C111.929 262.891 0 204.041 0 131.445C0 58.8501 111.929 0 250 0C388.071 0 500 58.8501 500 131.445ZM496 131.445C496 165.517 469.66 197.325 424.915 220.851C380.356 244.279 318.52 258.891 250 258.891C181.48 258.891 119.644 244.279 75.0848 220.851C30.3396 197.325 4 165.517 4 131.445C4 97.3737 30.3396 65.5661 75.0848 42.0399C119.644 18.6113 181.48 4 250 4C318.52 4 380.356 18.6113 424.915 42.0399C469.66 65.5661 496 97.3737 496 131.445Z" fill="#7F5AF0"/>
</svg>
