<svg width="472" height="487" viewBox="0 0 472 487" fill="none" xmlns="http://www.w3.org/2000/svg">
<path d="M236 97.0195C173.067 97.0195 133.733 129.486 118 194.42C141.6 161.953 169.133 149.778 200.6 157.895C218.553 162.526 231.386 175.964 245.589 190.84C268.728 215.073 295.508 243.12 354 243.12C416.933 243.12 456.267 210.653 472 145.72C448.4 178.186 420.867 190.361 389.4 182.245C371.447 177.614 358.614 164.175 344.411 149.299C321.272 125.066 294.492 97.0195 236 97.0195ZM118 243.12C55.0667 243.12 15.7333 275.586 0 340.52C23.6 308.053 51.1333 295.878 82.6 303.995C100.553 308.626 113.386 322.064 127.589 336.94C150.728 361.173 177.508 389.22 236 389.22C298.933 389.22 338.267 356.753 354 291.82C330.4 324.286 302.867 336.461 271.4 328.345C253.447 323.714 240.614 310.275 226.411 295.399C203.272 271.166 176.492 243.12 118 243.12Z" fill="url(#paint0_linear_335_247)"/>
<defs>
<linearGradient id="paint0_linear_335_247" x1="-13.1111" y1="190.524" x2="400.802" y2="421.825" gradientUnits="userSpaceOnUse">
<stop stop-color="#7F5AF0"/>
<stop offset="1" stop-color="#7F5AF0"/>
</linearGradient>
</defs>
</svg>
