<svg width="128" height="350" viewBox="0 0 128 350" fill="none" xmlns="http://www.w3.org/2000/svg">
<path d="M75.5303 299.736C75.8831 296.025 79.1776 293.302 82.8888 293.655C86.5628 294.005 89.2679 297.237 88.9794 300.903L88.9697 301.014L85.8447 333.889C85.4919 337.6 82.1974 340.322 78.4863 339.97C74.8122 339.62 72.1071 336.388 72.3956 332.722L72.4053 332.611L75.5303 299.736Z" fill="#EBBAAA"/>
<path d="M45.1113 293.655C48.7853 293.306 52.051 295.971 52.4583 299.625L52.4697 299.736L55.5947 332.611C55.9475 336.322 53.225 339.617 49.5138 339.97C45.8397 340.319 42.574 337.654 42.1668 334L42.1553 333.889L39.0303 301.014C38.6775 297.303 41.4001 294.008 45.1113 293.655Z" fill="#EBBAAA"/>
<path d="M13.4164 349.32C13.3669 343.648 14.1432 340.195 19.0963 337.878C24.0494 335.558 28.715 331.1 37.284 327.278C37.284 327.278 38.412 327.068 40.248 328.055C41.8148 328.9 43.827 330.97 46.8595 330.943C50.1523 330.913 53.0865 330.22 54.9095 329.265C55.6973 327.118 57.4445 327.103 57.4445 327.103C57.4445 327.103 59.9048 331.765 59.9455 336.45C59.9865 341.133 59.982 348.913 59.982 348.913L13.4164 349.32Z" fill="#DCE1E6"/>
<path d="M35.4941 327.615C35.8354 327.462 36.2355 327.616 36.3878 327.957C36.8752 329.05 36.9842 330.082 36.9837 331.848C36.9836 332.322 36.5111 332.644 36.0744 332.483L36.0348 332.467L32.7701 331.033L33.4646 333.539C33.6047 334.045 33.143 334.505 32.6451 334.376L32.6057 334.364L29.3223 333.31L29.3225 336.263C29.3225 336.761 28.8053 337.083 28.3623 336.877L28.3245 336.858L26.0966 335.656L26.0965 337.87C26.0965 338.23 25.8156 338.524 25.461 338.546L25.4198 338.547C25.0599 338.547 24.7656 338.266 24.7443 337.911L24.7431 337.87L24.7432 334.523C24.7432 334.024 25.2604 333.702 25.7034 333.908L25.7412 333.927L27.9688 335.129L27.9691 332.383C27.9691 331.938 28.3883 331.619 28.8116 331.726L28.8526 331.738L31.8256 332.692L31.0851 330.021C30.9363 329.484 31.4618 329.013 31.973 329.206L32.0094 329.22L35.6103 330.802L35.607 330.725C35.562 329.833 35.4439 329.194 35.1849 328.584L35.1517 328.508C34.9995 328.167 35.1528 327.767 35.4941 327.615Z" fill="white"/>
<path d="M58.4848 329.57C57.5283 330.865 54.079 331.638 52.7813 331.828C51.4838 332.018 50.0933 331.85 50.6495 333.988C51.043 335.498 54.8243 334.888 56.3028 334.875C57.5048 334.865 59.1905 338.483 59.8183 337.253C59.8183 333.05 59.0223 330.775 58.4848 329.57Z" fill="#518C2D"/>
<path d="M15.2906 338.31C16.8102 337.762 18.4195 337.347 21.505 336.65L20.1936 340.41L20.231 344.692L11.4489 344.767C11.0905 344.772 10.4501 344.295 10.7559 342.365C11.1381 339.952 13.1313 339.09 15.2906 338.31Z" fill="#EAF4FB"/>
<path d="M29.8303 337.526L33.9213 345.291L30.0897 347.309L25.9987 339.544L29.8303 337.526Z" fill="#518C2D"/>
<path d="M35.468 334.588L40.3702 343.918L36.5363 345.932L31.634 336.602L35.468 334.588Z" fill="#518C2D"/>
<path d="M40.9963 331.355L47.7743 344.505L43.9247 346.49L37.1467 333.34L40.9963 331.355Z" fill="#518C2D"/>
<path d="M60.1283 348.17L59.8743 343.678L20.4963 344.288L10.6779 343.57L10.3801 347C10.2753 348.208 11.1805 349.265 12.3888 349.348L20.5454 349.91L59.064 349.313C59.6795 349.303 60.163 348.783 60.1283 348.17Z" fill="#C7CBCF"/>
<path d="M114.584 349.32C114.633 343.648 113.857 340.195 108.904 337.878C103.951 335.558 99.285 331.1 90.716 327.278C90.716 327.278 89.588 327.068 87.752 328.055C86.1852 328.9 84.173 330.97 81.1405 330.943C77.8477 330.913 74.9135 330.22 73.0905 329.265C72.3027 327.118 70.5555 327.103 70.5555 327.103C70.5555 327.103 68.0952 331.765 68.0545 336.45C68.0135 341.133 68.018 348.913 68.018 348.913L114.584 349.32Z" fill="#DCE1E6"/>
<path d="M91.6123 327.957C91.7645 327.616 92.1646 327.462 92.5059 327.615C92.8473 327.767 93.0005 328.167 92.8483 328.508C92.5661 329.141 92.4399 329.795 92.3931 330.725L92.3893 330.802L95.9906 329.22C96.5007 328.996 97.0415 329.449 96.9244 329.983L96.9149 330.021L96.1743 332.692L99.1474 331.738C99.5706 331.602 100.003 331.904 100.03 332.34L100.031 332.383L100.031 335.129L102.259 333.927C102.697 333.691 103.226 333.993 103.255 334.48L103.257 334.522L103.257 337.87C103.257 338.244 102.954 338.547 102.58 338.547C102.22 338.547 101.926 338.266 101.905 337.911L101.904 337.87L101.903 335.656L99.6755 336.858C99.2372 337.095 98.7079 336.793 98.6788 336.305L98.6776 336.263L98.6773 333.311L95.3943 334.364C94.8949 334.525 94.4168 334.082 94.5256 333.579L94.5354 333.539L95.2298 331.033L91.9652 332.467C91.5312 332.658 91.0459 332.355 91.0176 331.89L91.0163 331.848L91.0173 331.56C91.0291 329.967 91.1519 328.989 91.6123 327.957Z" fill="white"/>
<path d="M69.5153 329.57C70.4718 330.865 73.921 331.638 75.2188 331.828C76.5163 332.018 77.9068 331.85 77.3505 333.988C76.957 335.498 73.1758 334.888 71.6973 334.875C70.4953 334.865 68.8095 338.483 68.1818 337.253C68.1818 333.05 68.9778 330.775 69.5153 329.57Z" fill="#518C2D"/>
<path d="M112.709 338.31C111.19 337.762 109.58 337.347 106.495 336.65L107.806 340.41L107.769 344.692L116.551 344.767C116.909 344.772 117.55 344.295 117.244 342.365C116.862 339.952 114.869 339.09 112.709 338.31Z" fill="#EAF4FB"/>
<path d="M98.1697 337.526L102.001 339.544L97.9104 347.309L94.0787 345.291L98.1697 337.526Z" fill="#518C2D"/>
<path d="M92.532 334.588L96.366 336.602L91.4637 345.932L87.6298 343.918L92.532 334.588Z" fill="#518C2D"/>
<path d="M87.0037 331.355L90.8533 333.34L84.0753 346.49L80.2257 344.505L87.0037 331.355Z" fill="#518C2D"/>
<path d="M67.8718 348.17L68.1258 343.678L107.504 344.288L117.322 343.57L117.62 347C117.725 348.208 116.82 349.265 115.611 349.348L107.455 349.91L68.936 349.313C68.3205 349.303 67.837 348.783 67.8718 348.17Z" fill="#C7CBCF"/>
<path d="M64 244.5C79.8783 244.5 92.75 237.896 92.75 229.75C92.75 221.604 79.8783 215 64 215C48.1217 215 35.25 221.604 35.25 229.75C35.25 237.896 48.1217 244.5 64 244.5Z" fill="#4D5457"/>
<path d="M65.25 223.75H99L94.0985 311.872L90.8595 320.825L71.9237 322.5L70.1145 313.875L65.25 223.75Z" fill="#4D5457"/>
<path d="M70.25 320.5H91.5L90.4635 326H71.22L70.25 320.5Z" fill="#434A4C"/>
<path d="M62.75 223.75H29L33.9015 311.872L37.1405 320.825L56.0763 322.5L57.8855 313.875L62.75 223.75Z" fill="#4D5457"/>
<path d="M57.75 320.5H36.5L37.5365 326H56.78L57.75 320.5Z" fill="#434A4C"/>
<path d="M92.7148 233.542C94.289 233.142 97.8613 230.918 98.4665 231.292C100.132 233.042 99.072 277.525 98.1638 278.9C97.2555 280.275 89.5363 280.775 89.5363 278.9C89.5363 277.025 89.385 270.528 89.5363 265.405C89.6875 260.283 87.1145 234.666 88.3255 234.292C89.5363 233.917 90.7473 234.042 92.7148 233.542Z" fill="#2F3034"/>
<path d="M90.7472 235.416C91.958 235.291 96.953 233.541 98.4665 232.417C99.526 233.541 101.342 241.289 99.3747 242.288C97.407 243.288 92.2607 243.163 91.6552 242.288C91.0497 241.413 89.5362 235.541 90.7472 235.416Z" fill="#3B4345"/>
<path fill-rule="evenodd" clip-rule="evenodd" d="M91.0786 236.816L91.3234 236.765C91.4152 237.207 91.5265 237.723 91.6396 238.229L91.3956 238.284C91.3106 237.903 91.2266 237.517 91.1511 237.161L91.0786 236.816ZM91.7367 239.748L91.9795 239.688C92.1162 240.246 92.2361 240.695 92.3335 241.008L92.3713 241.126L92.134 241.204C92.0465 240.94 91.9397 240.556 91.8174 240.072L91.7367 239.748ZM93.4427 241.952C93.8902 242.016 94.4149 242.061 94.9512 242.078L94.9593 241.829C94.4321 241.811 93.9165 241.767 93.4783 241.704L93.4427 241.952ZM97.9724 241.811C97.5363 241.928 97.0281 242.007 96.468 242.05L96.449 241.8C96.9946 241.759 97.4878 241.682 97.9074 241.569L97.9724 241.811Z" fill="black"/>
<path fill-rule="evenodd" clip-rule="evenodd" d="M98.1061 231.931L98.2214 232.153C97.9596 232.289 97.6635 232.44 97.3535 232.596L96.8807 232.831L96.77 232.607C97.1407 232.424 97.5064 232.24 97.8346 232.071L98.1061 231.931ZM95.4208 233.257L95.5266 233.483C95.0152 233.722 94.5517 233.929 94.1519 234.096L94.0556 233.866C94.3726 233.733 94.7307 233.575 95.1216 233.396L95.4208 233.257ZM92.7061 234.576L92.6582 234.33L92.4892 234.363C92.1362 234.429 91.6937 234.506 91.1846 234.589L91.225 234.836L91.5955 234.774C92.0321 234.701 92.4081 234.634 92.7061 234.576ZM88.9492 234.934L89.7041 234.822L89.7415 235.069L89.2153 235.147L89.2684 235.883L89.019 235.901L88.9492 234.934ZM89.1268 237.396L89.2344 238.892L89.4837 238.874L89.3762 237.378L89.1268 237.396ZM89.4489 241.885L89.3418 240.389L89.5911 240.371L89.6982 241.867L89.4489 241.885ZM89.5556 243.38L89.6621 244.876L89.9115 244.858L89.805 243.363L89.5556 243.38ZM89.8742 247.869L89.7684 246.373L90.0177 246.355L90.1236 247.851L89.8742 247.869ZM89.9797 249.365L90.0846 250.862L90.3339 250.844L90.2291 249.348L89.9797 249.365ZM90.2918 253.855L90.1887 252.359L90.4381 252.341L90.5412 253.838L90.2918 253.855ZM90.393 255.351L90.471 256.54C90.4772 256.637 90.4831 256.739 90.4889 256.846L90.7385 256.832L90.7266 256.624L90.6425 255.334L90.393 255.351ZM90.5468 258.341L90.7967 258.334C90.803 258.562 90.8088 258.802 90.8141 259.052L90.8283 259.836L90.5784 259.84C90.5731 259.5 90.567 259.178 90.5601 258.872L90.5468 258.341ZM90.8458 261.338L90.5958 261.34L90.6019 262.324C90.6027 262.493 90.6033 262.665 90.6038 262.839L90.8538 262.839L90.8507 262.071C90.8493 261.821 90.8477 261.576 90.8458 261.338ZM90.6051 264.338L90.8551 264.339C90.8549 264.533 90.8546 264.73 90.8541 264.929L90.8512 265.839L90.6012 265.838L90.6023 265.531L90.6051 264.338ZM90.5931 267.338L90.5815 268.838L90.8315 268.84L90.8431 267.339L90.5931 267.338ZM90.5498 271.837L90.5669 270.337L90.8169 270.34L90.7998 271.84L90.5498 271.837ZM90.5304 273.336L90.509 274.835L90.759 274.839L90.7804 273.339L90.5304 273.336ZM90.486 276.335L90.736 276.339C90.7244 277.078 90.7211 277.298 90.7208 277.384L90.7222 277.43C90.7301 277.516 90.7695 277.632 90.838 277.756L90.6193 277.877C90.5232 277.704 90.4707 277.534 90.4707 277.4L90.486 276.335ZM91.837 278.878C92.2718 279.05 92.7821 279.138 93.3658 279.127L93.3613 278.877C92.8099 278.887 92.3324 278.805 91.9291 278.646L91.837 278.878ZM96.3108 278.44C95.8029 278.645 95.3226 278.802 94.8694 278.915L94.8092 278.672C95.2507 278.563 95.72 278.409 96.2173 278.208L96.3108 278.44Z" fill="black"/>
<path d="M35.2853 233.542C33.711 233.142 30.1388 230.918 29.5335 231.292C27.8685 233.042 28.928 277.525 29.8363 278.9C30.7445 280.275 38.4638 280.775 38.4638 278.9C38.4638 277.025 38.615 270.528 38.4638 265.405C38.3125 260.283 40.8855 234.666 39.6745 234.292C38.4638 233.917 37.2528 234.042 35.2853 233.542Z" fill="#2F3034"/>
<path d="M37.2528 235.416C36.042 235.291 31.047 233.541 29.5335 232.417C28.474 233.541 26.6578 241.289 28.6253 242.288C30.593 243.288 35.7393 243.163 36.3448 242.288C36.9503 241.413 38.4638 235.541 37.2528 235.416Z" fill="#3B4345"/>
<path fill-rule="evenodd" clip-rule="evenodd" d="M36.6766 236.765L36.9214 236.816C36.8638 237.093 36.7987 237.399 36.7302 237.714L36.6044 238.284L36.3604 238.229C36.4453 237.85 36.529 237.465 36.6044 237.109L36.6766 236.765ZM36.0205 239.688L36.2633 239.747C36.1253 240.311 36.0042 240.764 35.9047 241.084L35.866 241.204L35.6287 241.126C35.7079 240.886 35.8045 240.542 35.9148 240.111L36.0205 239.688ZM34.5217 241.704C34.0835 241.767 33.568 241.811 33.0407 241.828L33.0489 242.078C33.5851 242.061 34.1098 242.016 34.5573 241.952L34.5217 241.704ZM30.0926 241.569C30.5122 241.682 31.0054 241.759 31.551 241.8L31.532 242.05C30.9719 242.007 30.4637 241.928 30.0276 241.811L30.0926 241.569Z" fill="black"/>
<path fill-rule="evenodd" clip-rule="evenodd" d="M29.7786 232.153L29.8939 231.931C30.1982 232.09 30.5491 232.268 30.9143 232.451L31.2301 232.608L31.1193 232.832C30.8005 232.674 30.4855 232.516 30.1945 232.367L29.7786 232.153ZM32.4734 233.483L32.5792 233.257C33.0878 233.494 33.5482 233.7 33.9444 233.865L33.8481 234.096C33.5282 233.963 33.1677 233.803 32.7744 233.623L32.4734 233.483ZM35.3418 234.33L35.2939 234.575L35.6491 234.642C35.9695 234.701 36.3491 234.766 36.775 234.836L36.8154 234.589L36.3294 234.508C35.9442 234.443 35.6106 234.383 35.3418 234.33ZM38.7847 235.147L38.2585 235.069L38.296 234.822L39.0508 234.934L38.981 235.9L38.7317 235.882L38.7847 235.147ZM38.6238 237.378L38.5163 238.874L38.7657 238.892L38.8732 237.396L38.6238 237.378ZM38.3018 241.867L38.4089 240.371L38.6583 240.389L38.5512 241.885L38.3018 241.867ZM38.1951 243.362L38.0885 244.858L38.3379 244.876L38.4444 243.38L38.1951 243.362ZM37.8764 247.851L37.9823 246.355L38.2316 246.372L38.1258 247.869L37.8764 247.851ZM37.771 249.347L37.6661 250.844L37.9155 250.861L38.0203 249.365L37.771 249.347ZM37.4588 253.838L37.5619 252.341L37.8113 252.358L37.7082 253.855L37.4588 253.838ZM37.3575 255.334L37.2795 256.524L37.2615 256.832L37.5111 256.846L37.529 256.54L37.607 255.35L37.3575 255.334ZM37.2034 258.334L37.4533 258.341C37.4454 258.625 37.4383 258.927 37.432 259.247L37.4216 259.84L37.1717 259.836C37.178 259.428 37.1855 259.043 37.1942 258.685L37.2034 258.334ZM37.4043 261.339L37.1543 261.337L37.1508 261.822C37.1487 262.151 37.1472 262.49 37.1462 262.838L37.3962 262.839L37.4008 261.824C37.4018 261.66 37.403 261.498 37.4043 261.339ZM37.1449 264.338L37.3949 264.338L37.3953 264.631L37.3988 265.838L37.1488 265.839L37.1477 265.532L37.1449 264.338ZM37.157 267.339L37.1685 268.84L37.4185 268.837L37.4069 267.337L37.157 267.339ZM37.2002 271.84L37.1831 270.34L37.4331 270.337L37.4502 271.837L37.2002 271.84ZM37.2196 273.339L37.241 274.839L37.491 274.835L37.4696 273.335L37.2196 273.339ZM37.264 276.339L37.514 276.335C37.5248 277.027 37.5284 277.264 37.5291 277.363L37.5273 277.446C37.5171 277.571 37.4661 277.723 37.3807 277.877L37.162 277.756C37.2391 277.616 37.2793 277.486 37.2793 277.4L37.264 276.339ZM36.0709 278.646C35.6677 278.805 35.1902 278.887 34.6387 278.877L34.6342 279.127C35.2179 279.138 35.7282 279.05 36.163 278.878L36.0709 278.646ZM31.7827 278.208C32.28 278.409 32.7493 278.562 33.1908 278.672L33.1306 278.915C32.6774 278.802 32.1971 278.645 31.6892 278.44L31.7827 278.208Z" fill="black"/>
<path d="M26.9434 132.955C29.4534 128.506 35.0952 126.933 39.5447 129.443C43.9942 131.953 45.5665 137.595 43.0565 142.045C38.4555 150.201 33.6399 165.343 30.444 181.258C28.9409 188.744 27.9109 195.868 27.4915 201.66L27.4559 202.17C27.2863 204.698 27.2417 206.899 27.3189 208.686L27.327 208.863C27.3671 209.69 27.4329 210.398 27.5182 210.97L27.5356 211.083C27.5979 211.476 27.6585 211.733 27.6882 211.824L27.6931 211.839C29.4389 216.64 26.9622 221.947 22.1611 223.693C17.3601 225.439 12.0527 222.962 10.3069 218.161C7.59202 210.695 8.67953 195.676 12.306 177.616C15.8522 159.956 21.2033 143.131 26.9434 132.955Z" fill="#EBBAAA"/>
<path d="M88.4553 129.443C92.9048 126.933 98.5466 128.506 101.057 132.955C106.797 143.131 112.148 159.956 115.694 177.616C119.32 195.676 120.408 210.695 117.693 218.161C115.947 222.962 110.64 225.439 105.839 223.693C101.086 221.965 98.6108 216.746 100.256 211.983L100.307 211.839C100.334 211.763 100.398 211.499 100.464 211.083C100.552 210.529 100.621 209.838 100.665 209.027L100.673 208.863C100.767 206.928 100.713 204.489 100.509 201.66L100.464 201.067C100.019 195.384 99.0081 188.49 97.556 181.258C94.36 165.343 89.5445 150.201 84.9434 142.045C82.4335 137.595 84.0058 131.953 88.4553 129.443Z" fill="#EBBAAA"/>
<path d="M108.34 127.544C104.562 117.164 93.0855 111.813 82.706 115.591C72.3265 119.368 66.9747 130.845 70.7525 141.225L89.5637 192.908L127.151 179.227L108.34 127.544Z" fill="#373434"/>
<path d="M19.6597 127.544C23.4376 117.164 34.9145 111.813 45.294 115.591C55.6735 119.368 61.0253 130.845 57.2475 141.225L38.4363 192.908L0.848633 179.227L19.6597 127.544Z" fill="#373434"/>
<path d="M27.0425 129.147C26.7318 122.899 31.0875 117.384 37.237 116.238L64 111.25L90.763 116.238C96.9125 117.384 101.268 122.899 100.958 129.147L99 168.5L101.386 222.891C101.448 224.313 100.312 225.5 98.888 225.5H29.112C27.6883 225.5 26.552 224.313 26.6145 222.891L29 168.5L27.0425 129.147Z" fill="#373434"/>
<mask id="mask0_0_6414" style="mask-type:luminance" maskUnits="userSpaceOnUse" x="0" y="111" width="128" height="115">
<path fill-rule="evenodd" clip-rule="evenodd" d="M28.0945 189.144L0.848633 179.227L19.6597 127.544C23.2318 117.73 33.687 112.411 43.5895 115.054L64 111.25L84.4105 115.054C94.313 112.411 104.768 117.73 108.34 127.544L127.151 179.227L99.9055 189.144L101.385 222.891C101.448 224.313 100.312 225.5 98.888 225.5H29.112C27.6883 225.5 26.552 224.313 26.6145 222.891L28.0945 189.144Z" fill="white"/>
</mask>
<g mask="url(#mask0_0_6414)">
<path d="M109.269 123.201L111.231 127.8L92.011 136H35.9889L16.7689 127.8L18.7311 123.201L37.011 131H90.9887L109.269 123.201Z" fill="white"/>
<path d="M116.739 141.214L118.761 145.787L94.528 156.5H33.472L9.23914 145.787L11.2609 141.214L34.5285 151.5H93.4713L116.739 141.214Z" fill="white"/>
<path d="M124.22 159.222L126.28 163.778L97.0389 177H30.9611L1.71997 163.778L3.78003 159.222L32.039 172H95.9607L124.22 159.222Z" fill="white"/>
<path d="M101.5 192V197H26.5V192H101.5Z" fill="white"/>
<path d="M101.5 212V217H26.5V212H101.5Z" fill="white"/>
</g>
<rect x="54" y="76.75" width="20" height="48.75" rx="10" fill="#EBBAAA"/>
<path d="M54 114.25C54 108.727 58.477 104.25 64 104.25C69.5227 104.25 74 108.727 74 114.25V115.5C74 121.023 69.5227 125.5 64 125.5C58.477 125.5 54 121.023 54 115.5V114.25Z" fill="#EBBAAA"/>
<path opacity="0.5" d="M100.25 73.0002C105.773 73.0002 110.25 68.523 110.25 63.0002C110.25 57.4775 105.773 53.0002 100.25 53.0002C94.7273 53.0002 90.25 57.4775 90.25 63.0002C90.25 68.523 94.7273 73.0002 100.25 73.0002Z" fill="#DE8E7C"/>
<path opacity="0.5" d="M27.75 73.0002C22.2271 73.0002 17.75 68.523 17.75 63.0002C17.75 57.4775 22.2271 53.0002 27.75 53.0002C33.2727 53.0002 37.75 57.4775 37.75 63.0002C37.75 68.523 33.2727 73.0002 27.75 73.0002Z" fill="#DE8E7C"/>
<path d="M26.5 38.5C26.5 17.7893 43.2892 1 64 1C84.7108 1 101.5 17.7893 101.5 38.5V68.5C101.5 89.2108 84.7108 106 64 106C43.2892 106 26.5 89.2108 26.5 68.5V38.5Z" fill="#F4D5CC"/>
<path d="M102.75 38.2502L100.75 26.25H92.75L94 37.5C94 37.5 97.532 41.8005 99 45C101.396 50.2227 101.5 59.5 101.5 59.5L102.75 38.2502Z" fill="#868686"/>
<path d="M25.25 38.2502L27.25 26.25H35.25L34 37.5C34 37.5 30.468 41.8005 29 45C26.6035 50.2227 26.5 59.5 26.5 59.5L25.25 38.2502Z" fill="#868686"/>
<path fill-rule="evenodd" clip-rule="evenodd" d="M64.0495 0C75.178 0.042144 105.576 5.875 102.825 38.25C100.913 35.7446 98.329 34.1518 95.6446 32.6558L95.4077 38.0585L80.4477 29.0203L84.01 37.5148L67.1715 29.5885L61.25 37.5148L40.783 32.2725L30.625 41L31.9208 33.6952C29.7392 34.9834 27.5482 36.4391 25.2738 38.25C21.7715 7.25 52.8167 0.0421458 63.9445 0H64.0495Z" fill="#272727"/>
<path d="M88.5 43.25C89.7426 43.25 90.75 44.2574 90.75 45.5C90.75 46.7205 89.7783 47.7139 88.5663 47.749L88.5 47.75H74.5C73.2574 47.75 72.25 46.7426 72.25 45.5C72.25 44.2795 73.2217 43.2861 74.4337 43.251L74.5 43.25H88.5Z" fill="#393939"/>
<path d="M53.5 43.25C54.7426 43.25 55.75 44.2574 55.75 45.5C55.75 46.7205 54.7783 47.7139 53.5663 47.749L53.5 47.75H39.5C38.2574 47.75 37.25 46.7426 37.25 45.5C37.25 44.2795 38.2217 43.2861 39.4337 43.251L39.5 43.25H53.5Z" fill="#393939"/>
<path d="M83.5 53C84.7426 53 85.75 54.0074 85.75 55.25C85.75 56.4705 84.7783 57.4639 83.5663 57.499L83.5 57.5H76C74.7574 57.5 73.75 56.4926 73.75 55.25C73.75 54.0295 74.7217 53.0361 75.9337 53.001L76 53H83.5Z" fill="black"/>
<path d="M52 53C53.2426 53 54.25 54.0074 54.25 55.25C54.25 56.4705 53.2783 57.4639 52.0663 57.499L52 57.5H44.5C43.2574 57.5 42.25 56.4926 42.25 55.25C42.25 54.0295 43.2217 53.0361 44.4337 53.001L44.5 53H52Z" fill="black"/>
<path d="M73.0348 83.3345C73.9546 82.8014 75.1324 83.115 75.6654 84.0348C76.1876 84.9358 75.8974 86.0844 75.0207 86.632L74.9652 86.6654C74.9176 86.693 74.8488 86.7309 74.7592 86.7778L74.7126 86.8019C74.5417 86.8901 74.3433 86.986 74.118 87.0873C73.495 87.3677 72.7699 87.6445 71.9466 87.9005C69.6314 88.6205 66.971 89.0499 64 89.0499C61.029 89.0499 58.3686 88.6205 56.0534 87.9005C55.2301 87.6445 54.505 87.3677 53.882 87.0873C53.6942 87.0029 53.5252 86.9222 53.3752 86.8467L53.2874 86.8019C53.1747 86.7438 53.0904 86.6976 53.0348 86.6654C52.115 86.1323 51.8015 84.9546 52.3346 84.0348C52.8567 83.1337 53.9976 82.8145 54.9086 83.3029L55.0179 83.3634C55.0929 83.4032 55.2226 83.4677 55.4054 83.551L55.4618 83.5766C55.9456 83.7943 56.5252 84.0156 57.1966 84.2244C59.1524 84.8325 61.4294 85.2 64 85.2C66.5706 85.2 68.8476 84.8325 70.8034 84.2244C71.4232 84.0316 71.9647 83.8283 72.4249 83.6269L72.5382 83.5766C72.7509 83.4809 72.8996 83.4072 72.9821 83.3634L73.0348 83.3345Z" fill="#C99584"/>
<path d="M61.7319 59.3213L65.2681 61.6788C64.0662 63.4816 63.1249 66.1877 63.1249 68.1563C63.1248 70.0546 63.8103 70.8525 65.9089 70.8746L65.9998 70.875V75.125C61.364 75.125 58.8748 72.3246 58.8749 68.1562C58.8749 65.3325 60.0497 61.9047 61.6445 59.454L61.7319 59.3213Z" fill="#EBBAAA"/>
</svg>
