<svg width="30" height="30" viewBox="0 0 30 30" fill="none" xmlns="http://www.w3.org/2000/svg">
<path d="M4.10156 24.215L4.28318 23.9607L12.8744 7.65923L12.8926 7.48666L9.10536 0.372966C8.78807 -0.222935 7.89482 -0.0722703 7.79069 0.594794L4.10156 24.215Z" fill="#FFC24A"/>
<path d="M4.20869 24.0211L4.34608 23.7532L12.8473 7.6225L9.06958 0.479863C8.75561 -0.109794 7.95832 0.0405215 7.85528 0.700596L4.20869 24.0211Z" fill="#FFA712"/>
<path d="M15.6535 12.8675L18.4733 9.97952L15.6526 4.59484C15.3849 4.08514 14.6373 4.08367 14.3723 4.59484L12.8654 7.4689V7.71367L15.6535 12.8675Z" fill="#F4BD62"/>
<path d="M15.6032 12.7471L18.3446 9.9395L15.6032 4.71937C15.3429 4.22385 14.7104 4.17193 14.4529 4.66888L12.9379 7.58747L12.8926 7.73667L15.6032 12.7471Z" fill="#FFA50E"/>
<path d="M4.10156 24.215L4.18389 24.1322L4.48299 24.0107L15.4763 13.0582L15.6156 12.6791L12.8732 7.45323L4.10156 24.215Z" fill="#F6820C"/>
<path d="M16.0056 29.7386L25.9547 24.1898L23.1136 6.69205C23.0247 6.14459 22.3531 5.92816 21.9612 6.3207L4.10156 24.215L13.9937 29.7381C14.6189 30.0871 15.3802 30.0873 16.0056 29.7386Z" fill="#FDE068"/>
<path d="M25.8656 24.1433L23.046 6.77836C22.9578 6.23505 22.3993 6.01023 22.0104 6.3998L4.21187 24.181L13.9953 29.6494C14.6158 29.9958 15.3714 29.996 15.9919 29.6499L25.8656 24.1433Z" fill="#FCCA3F"/>
<path d="M16.0056 29.5751C15.3802 29.9238 14.6189 29.9237 13.9937 29.5746L4.18124 24.1309L4.10156 24.215L13.9937 29.7381C14.6189 30.0871 15.3802 30.0873 16.0056 29.7386L25.9547 24.1898L25.9304 24.0399L16.0056 29.5751Z" fill="#EEAB37"/>
</svg>
